/* XPM */
static char * config_xpm[] = {
"24 24 2 1",
" 	g None",
".	g #000000",
"    ..                  ",
" .......                ",
" .......                ",
" ... ...                ",
"...   ...               ",
"....  ...               ",
" .......     ....       ",
" .......     ....       ",
"    ..  ... .....  ..   ",
"        ..............  ",
"        ..............  ",
"         ............   ",
"        .....    ....   ",
"      ......      ......",
"      ......      ......",
"      ......      ......",
"      ......      ..... ",
"         ....    ....   ",
"         ............   ",
"        ..............  ",
"        ..............  ",
"         ..  ....  ..   ",
"             ....       ",
"             ...        "};
