#define ConfigWindowIcon_width 24
#define ConfigWindowIcon_height 24
static const char ConfigWindowIcon_bits[] = {
   0x00, 0x00, 0x00, 0x00, 0xff, 0x01, 0x80, 0x5f, 0x07, 0x80, 0x9f, 0x0e,
   0x98, 0x9f, 0x16, 0xfc, 0xff, 0x25, 0xfe, 0x1f, 0x79, 0xfe, 0x17, 0x59,
   0xff, 0x11, 0x57, 0xff, 0x70, 0xf3, 0x7f, 0x10, 0xb2, 0x7c, 0x10, 0xbe,
   0x78, 0xf0, 0xa3, 0x78, 0x10, 0xe2, 0xfe, 0x10, 0xf2, 0xfe, 0x11, 0x5f,
   0xfe, 0xf7, 0x53, 0xfe, 0x1f, 0x69, 0xfc, 0x1f, 0x39, 0x78, 0xbf, 0x1f,
   0x30, 0xbe, 0x0e, 0x00, 0x9e, 0x07, 0x00, 0xfc, 0x00, 0x00, 0x00, 0x00 };
