#define DiagramWindowIcon_width 24
#define DiagramWindowIcon_height 24
static const char DiagramWindowIcon_bits[] = {
   0x00, 0x7e, 0x00, 0xc0, 0x7f, 0x00, 0xc0, 0x7f, 0x04, 0x00, 0x00, 0x0e,
   0xf8, 0x3f, 0x1e, 0xfc, 0x3f, 0x3f, 0xfc, 0x1f, 0x7f, 0x00, 0x80, 0x7f,
   0xfe, 0x8f, 0x7f, 0xff, 0xcf, 0xff, 0xff, 0xc7, 0xff, 0x00, 0xc0, 0xff,
   0x00, 0x80, 0xff, 0xff, 0x0f, 0xff, 0xff, 0x1f, 0xfe, 0xfe, 0x3f, 0x7c,
   0xfe, 0xff, 0x70, 0xfe, 0xff, 0x61, 0xfc, 0xff, 0x03, 0xf8, 0xff, 0x0f,
   0xf0, 0xff, 0x0f, 0xe0, 0xff, 0x07, 0x80, 0xff, 0x01, 0x00, 0x7e, 0x00 };
