/* XPM */
static char * help_xpm[] = {
"24 24 2 1",
" 	g None",
".	g #000000",
"                        ",
"              ..        ",
"              .         ",
"             . .        ",
"             .  .       ",
"          .. . . .      ",
"        .. .... . .     ",
"       .   . ...   ..   ",
"      .. .... ......    ",
"      . . . .           ",
"      .  . . .....      ",
"  ..... . . ..   ..     ",
"...  ... . ..     ..    ",
"  . .  .   .  ...  .    ",
"   . . .....   ..  .    ",
"   .....  ..   .   ..   ",
"    .  .   .   .   .    ",
"     . .   ..     ..    ",
"      .     ..   ..     ",
"             ..... ..   ",
"                    ..  ",
"                     .. ",
"                      ..",
"                        "};
