#define RNAWindowIcon_width 24
#define RNAWindowIcon_height 24
static const char RNAWindowIcon_bits[] = {
   0xc0, 0x00, 0x03, 0xc0, 0x00, 0x03, 0xc0, 0xff, 0x03, 0xc0, 0xff, 0x03,
   0xc0, 0x00, 0x03, 0x80, 0x81, 0x01, 0x80, 0xff, 0x01, 0x00, 0xff, 0x00,
   0x00, 0xc3, 0x00, 0x00, 0x66, 0x00, 0x00, 0x3c, 0x00, 0x00, 0x3c, 0x00,
   0x00, 0x3c, 0x00, 0x00, 0x3c, 0x00, 0x00, 0x66, 0x00, 0x00, 0xc3, 0x00,
   0x00, 0xff, 0x00, 0x80, 0xff, 0x01, 0x80, 0x81, 0x01, 0xc0, 0x00, 0x03,
   0xc0, 0xff, 0x03, 0xc0, 0xff, 0x03, 0xc0, 0x00, 0x03, 0xc0, 0x00, 0x03 };
