#define StatsWindowIcon_width 24
#define StatsWindowIcon_height 24
static const char StatsWindowIcon_bits[] = {
   0x00, 0x00, 0x00, 0x00, 0x00, 0x00, 0x00, 0x00, 0x1e, 0x00, 0x00, 0x1c,
   0x00, 0x00, 0x1f, 0x00, 0xe0, 0x09, 0x00, 0x78, 0x00, 0x00, 0x0e, 0x00,
   0x80, 0x03, 0x3e, 0xf0, 0x00, 0x3e, 0x18, 0x00, 0x3e, 0x00, 0x7e, 0x3e,
   0x00, 0x7e, 0x3e, 0x00, 0x7e, 0x3e, 0x7c, 0x7e, 0x3e, 0x7c, 0x7e, 0x3e,
   0x7c, 0x7e, 0x3e, 0x7c, 0x7e, 0x3e, 0x7c, 0x7e, 0x3e, 0x7c, 0x7e, 0x3e,
   0x7c, 0x7e, 0x3e, 0xff, 0xff, 0xff, 0xff, 0xff, 0xff, 0x00, 0x00, 0x00 };
